<?xml version="1.0" encoding="UTF-8"?>
<svg id="_1" data-name="1" xmlns="http://www.w3.org/2000/svg" viewBox="0 0 662.78 800">
  <defs>
    <style>
      .cls-1 {
        fill: #fff;
      }
    </style>
  </defs>
  <path class="cls-1" d="M331.39,212.85c-26.68,0-48.39-21.71-48.39-48.39h15.69c0,18.03,14.68,32.71,32.71,32.71s32.71-14.68,32.71-32.71c0-15.8-8.42-26.76-18.16-39.45-10.49-13.66-22.39-29.15-22.39-52.16h15.69c0,17.69,9.3,29.79,19.15,42.6,10.52,13.7,21.4,27.88,21.4,49,0,26.69-21.7,48.4-48.38,48.4Z"/>
  <path class="cls-1" d="M331.39,80.68c-22.24,0-40.35-18.09-40.35-40.35S309.15,0,331.39,0s40.35,18.09,40.35,40.35-18.1,40.34-40.35,40.34Zm0-65c-13.59,0-24.66,11.06-24.66,24.66s11.06,24.66,24.66,24.66,24.66-11.06,24.66-24.66-11.07-24.66-24.66-24.66Z"/>
  <path class="cls-1" d="M58.45,434.12l-10.21-11.91L316.75,191.98c8.7-7.46,20.38-7.45,29.08,.02l268,230.23-10.22,11.9L335.61,203.89c-2.82-2.43-5.82-2.43-8.65,0L58.45,434.12Z"/>
  <path class="cls-1" d="M662.78,800H0V382.77H662.78v417.23h0ZM15.69,784.31H647.1V398.45H15.69v385.86Z"/>
  <circle class="cls-1" cx="53.34" cy="428.16" r="15.89"/>
  <circle class="cls-1" cx="608.71" cy="428.16" r="15.89"/>
  <path class="cls-1" d="M449.62,748.82c0-6.49,5.26-11.76,11.76-11.76h0c6.5,0,11.76,5.27,11.76,11.76h0c0,6.5-5.26,11.76-11.76,11.76h0c-6.49,0-11.76-5.26-11.76-11.76Zm-39.22,0c0-6.49,5.27-11.76,11.77-11.76h0c6.49,0,11.76,5.27,11.76,11.76h0c0,6.5-5.26,11.76-11.76,11.76h0c-6.5,0-11.77-5.26-11.77-11.76Zm-39.22,0c0-6.49,5.27-11.76,11.77-11.76h0c6.49,0,11.76,5.27,11.76,11.76h0c0,6.5-5.26,11.76-11.76,11.76h0c-6.5,0-11.77-5.26-11.77-11.76Zm-39.22,0c0-6.49,5.27-11.76,11.76-11.76h0c6.5,0,11.77,5.27,11.77,11.76h0c0,6.5-5.27,11.76-11.77,11.76h0c-6.49,0-11.76-5.26-11.76-11.76Zm-39.21,0c0-6.49,5.26-11.76,11.76-11.76h0c6.5,0,11.77,5.27,11.77,11.76h0c0,6.5-5.27,11.76-11.77,11.76h0c-6.49,0-11.76-5.26-11.76-11.76Zm-39.21,0c0-6.49,5.26-11.76,11.76-11.76h0c6.49,0,11.76,5.27,11.76,11.76h0c0,6.5-5.26,11.76-11.76,11.76h0c-6.5,0-11.76-5.26-11.76-11.76Zm-39.22,0c0-6.49,5.27-11.76,11.77-11.76h0c6.49,0,11.76,5.27,11.76,11.76h0c0,6.5-5.26,11.76-11.76,11.76h0c-6.5,0-11.77-5.26-11.77-11.76Zm-39.22,0c0-6.49,5.27-11.76,11.77-11.76h0c6.49,0,11.76,5.27,11.76,11.76h0c0,6.5-5.27,11.76-11.76,11.76h0c-6.5,0-11.77-5.26-11.77-11.76Zm-39.21,0c0-6.49,5.26-11.76,11.76-11.76h0c6.5,0,11.77,5.27,11.77,11.76h0c0,6.5-5.27,11.76-11.77,11.76h0c-6.49,0-11.76-5.26-11.76-11.76Zm-39.22,0c0-6.49,5.26-11.76,11.76-11.76h0c6.5,0,11.77,5.27,11.77,11.76h0c0,6.5-5.27,11.76-11.77,11.76h0c-6.49,0-11.76-5.26-11.76-11.76Zm-39.21,0c0-6.49,5.26-11.76,11.76-11.76h0c6.49,0,11.76,5.27,11.76,11.76h0c0,6.5-5.27,11.76-11.76,11.76h0c-6.5,0-11.76-5.26-11.76-11.76Z"/>
  <polygon class="cls-1" points="107.72 707.56 75.11 707.56 75.11 470.05 90.79 470.05 90.79 691.88 107.72 691.88 107.72 707.56"/>
  <polygon class="cls-1" points="204.75 707.56 172.12 707.56 172.12 470.05 187.81 470.05 187.81 691.88 204.75 691.88 204.75 707.56"/>
  <polygon class="cls-1" points="301.76 707.56 269.15 707.56 269.15 470.05 284.83 470.05 284.83 691.88 301.76 691.88 301.76 707.56"/>
  <polygon class="cls-1" points="398.78 707.56 366.17 707.56 366.17 470.05 381.86 470.05 381.86 691.88 398.78 691.88 398.78 707.56"/>
  <polygon class="cls-1" points="495.8 707.56 463.19 707.56 463.19 470.05 478.88 470.05 478.88 691.88 495.8 691.88 495.8 707.56"/>
  <polygon class="cls-1" points="592.82 707.56 560.21 707.56 560.21 470.05 575.9 470.05 575.9 691.88 592.82 691.88 592.82 707.56"/>
</svg>